<svg width="80" height="26" viewBox="0 0 80 26" fill="none" xmlns="http://www.w3.org/2000/svg">
<path d="M0.928223 0.511963H7.04822L11.1162 16.856H11.1882L16.5162 0.511963H21.7362L27.0282 17.288H27.1002L31.3842 0.511963H37.0722L29.6202 26H24.6162L19.0002 8.35996H18.9282L13.3122 26H8.48822L0.928223 0.511963Z" fill="url(#paint0_linear_104_1400)"/>
<path d="M39.5202 0.511963H45.1362V26H39.5202V0.511963Z" fill="url(#paint1_linear_104_1400)"/>
<path d="M50.2446 0.511963H58.7406L64.6086 17.144H64.6806L70.5846 0.511963H79.0446V26H73.4286V6.45196H73.3566L66.6606 26H62.3766L55.9326 6.45196H55.8606V26H50.2446V0.511963Z" fill="url(#paint2_linear_104_1400)"/>
<defs>
<linearGradient id="paint0_linear_104_1400" x1="0.999999" y1="1.60502" x2="82.2411" y2="25.2774" gradientUnits="userSpaceOnUse">
<stop offset="0.364583" stop-color="#FF5A5F"/>
<stop offset="1" stop-color="#F5FAFD"/>
</linearGradient>
<linearGradient id="paint1_linear_104_1400" x1="0.999999" y1="1.60502" x2="82.2411" y2="25.2774" gradientUnits="userSpaceOnUse">
<stop offset="0.364583" stop-color="#FF5A5F"/>
<stop offset="1" stop-color="#F5FAFD"/>
</linearGradient>
<linearGradient id="paint2_linear_104_1400" x1="0.999999" y1="1.60502" x2="82.2411" y2="25.2774" gradientUnits="userSpaceOnUse">
<stop offset="0.364583" stop-color="#FF5A5F"/>
<stop offset="1" stop-color="#F5FAFD"/>
</linearGradient>
</defs>
</svg>
