<svg width="79" height="26" viewBox="0 0 79 26" fill="none" xmlns="http://www.w3.org/2000/svg">
<path d="M0.5 0.274902H6.61089L10.6728 16.5946H10.7447L16.0648 0.274902H21.277L26.5611 17.0259H26.633L30.9106 0.274902H36.5902L29.1493 25.7249H24.1527L18.5451 8.11121H18.4732L12.8656 25.7249H8.04874L0.5 0.274902Z" fill="url(#paint0_linear_191_350)"/>
<path d="M39.0345 0.274902H44.6422V25.7249H39.0345V0.274902Z" fill="url(#paint1_linear_191_350)"/>
<path d="M49.7429 0.274902H58.2262L64.0855 16.8821H64.1574L70.0526 0.274902H78.5V25.7249H72.8924V6.20605H72.8205L66.1344 25.7249H61.8568L55.4224 6.20605H55.3505V25.7249H49.7429V0.274902Z" fill="url(#paint2_linear_191_350)"/>
<defs>
<linearGradient id="paint0_linear_191_350" x1="0.572158" y1="1.36654" x2="81.6923" y2="25.0037" gradientUnits="userSpaceOnUse">
<stop offset="0.3125" stop-color="#FF5A5F"/>
<stop offset="1" stop-color="#222222"/>
</linearGradient>
<linearGradient id="paint1_linear_191_350" x1="0.572158" y1="1.36654" x2="81.6923" y2="25.0037" gradientUnits="userSpaceOnUse">
<stop offset="0.3125" stop-color="#FF5A5F"/>
<stop offset="1" stop-color="#222222"/>
</linearGradient>
<linearGradient id="paint2_linear_191_350" x1="0.572158" y1="1.36654" x2="81.6923" y2="25.0037" gradientUnits="userSpaceOnUse">
<stop offset="0.3125" stop-color="#FF5A5F"/>
<stop offset="1" stop-color="#222222"/>
</linearGradient>
</defs>
</svg>
